<svg id="Capa_1" enable-background="new 0 0 512 512" height="512" viewBox="0 0 512 512" width="512" xmlns="http://www.w3.org/2000/svg"><g><path d="m26.575 254.44v193.826h229.425l20-82.266-20-121.56z" fill="#fd0"/><path d="m485.351 254.44-229.351-10v203.826h229.425z" fill="#ffbb17"/><g><path d="m357.94 318.174h63.751v70.882h-63.751z" fill="#e6e6f2"/></g><g><path d="m436.69 404.056h-93.751v-100.881h93.751zm-63.751-30h33.751v-40.881h-33.751z" fill="#004c82"/></g><path d="m90.31 318.174h63.751v70.882h-63.751z" fill="#fff4f4"/><path d="m169.061 404.056h-93.751v-100.881h93.751zm-63.751-30h33.751v-40.881h-33.751z" fill="#00719b"/><path d="m217.795 318.174v130.091h38.205l10-72.545-10-57.546z" fill="#ff8859"/><path d="m256 318.174h38.205v130.091h-38.205z" fill="#ff4c4c"/><path d="m202.795 448.266h30v-115.091h23.205l10-15.001-10-14.999h-53.205z" fill="#00719b"/><path d="m279.205 333.175v115.091h30v-145.091h-53.205v30z" fill="#004c82"/><g><path d="m327.041 111h30v90.53h-30z" fill="#cfcfe7"/></g><g><path d="m154.958 111h30v90.53h-30z" fill="#e6e6f2"/></g><g><path d="m452.178 65.625s-18.805-16.569-52.63-33.056l-60.239 50.239-35.192 45.192c92.274-13.223 148.061-62.375 148.061-62.375z" fill="#00c7ce"/><path d="m59.822 28.901 16.312 36.724-16.312 36.724c9.662 4.358 22.259 8.343 36.88 11.869l70.758-60.758 41.913-51.913c-60.036 3.68-119.233 13.679-149.551 27.354z" fill="#00e7f0"/><path d="m209.373 1.547-112.671 112.672c10.812 2.607 22.733 4.963 35.392 7.034l121.232-121.232c-14.426.102-29.214.623-43.953 1.526z" fill="#fd0"/></g><path d="m219.586 445.281-.158-.072-.158-.072c-20.111-9.187-52.717-9.187-72.827 0l-.158.072-.158.072c-20.111 9.187-52.717 9.187-72.827 0l-.158-.072-.158-.072c-20.111-9.187-42.717-9.187-62.827 0l-10.157 13.519v53.344h256l10-11.93-10-47.899c-13.179 0-26.358-2.296-36.414-6.89z" fill="#00e7f0"/><path d="m512 458.656-10.158-13.519c-20.111-9.187-42.717-9.187-62.827 0l-.158.072-.158.072c-20.111 9.187-52.716 9.187-72.827 0l-.158-.072-.158-.072c-20.111-9.187-52.717-9.187-72.827 0l-.158.072-.158.072c-10.055 4.593-23.234 6.89-36.414 6.89v59.829h256v-53.344z" fill="#00c7ce"/><g><g><g><path d="m256 437.353c-11.835 0-23.182-2.083-31.087-5.693l-.366-.167c-24.446-11.168-62.745-11.167-87.166-.011l-.347.158c-16.585 7.575-45.678 7.575-62.247.005l-.335-.153c-20.523-9.376-50.808-10.877-74.452-4.515v31.685c16.627-7.455 45.491-7.417 62.009.128l.302.138c24.445 11.167 62.743 11.166 87.2-.005l.313-.143c16.582-7.576 45.675-7.576 62.28.011l.301.138c11.895 5.433 27.377 8.425 43.595 8.425l10-15.181z" fill="#fff4f4"/></g></g><g><g><path d="m437.571 431.481-.347.158c-16.585 7.575-45.678 7.575-62.247.005l-.335-.153c-24.445-11.167-62.743-11.167-87.167-.011l-.346.158c-7.948 3.631-19.295 5.713-31.13 5.713v30c16.218 0 31.7-2.992 43.638-8.445l.28-.128c16.584-7.576 45.676-7.576 62.281.01l.302.138c24.446 11.167 62.744 11.166 87.2-.005l.313-.143c16.486-7.532 45.333-7.572 61.985-.117v-31.683c-23.653-6.363-53.927-4.862-74.427 4.503z" fill="#e6e6f2"/></g></g></g><path d="m253.326.021-121.232 121.231c37.946 6.207 82.535 9.841 123.906 9.984l10-80.747-10-50.479c-.891.004-1.78.004-2.674.011z" fill="#ff8859"/><path d="m369.807 19.884c-30.154-11.12-67.72-19.884-111.266-19.884-.844 0-1.694.007-2.541.01v131.226c.813.003 1.632.013 2.442.013l65.625-55.625z" fill="#ff4c4c"/><path d="m0 180.706v73.734h256l10-26.94-10-46.794z" fill="#ff8859"/><path d="m256 180.706h256v73.734h-256z" fill="#ff4c4c"/><path d="m304.117 128 95.431-95.431c-8.896-4.336-18.835-8.663-29.741-12.685l-111.365 111.366h.099c16.028 0 31.238-1.195 45.576-3.25z" fill="#ffbb17"/></g></svg>